<svg xmlns="http://www.w3.org/2000/svg" xmlns:xlink="http://www.w3.org/1999/xlink" width="500" zoomAndPan="magnify" viewBox="0 0 375 112.499997" height="150" preserveAspectRatio="xMidYMid meet" version="1.0"><defs><clipPath id="8fc92830c8"><path d="M 131.5 0.0078125 L 243.449219 0.0078125 L 243.449219 111.996094 L 131.5 111.996094 Z M 131.5 0.0078125 " clip-rule="nonzero"/></clipPath><clipPath id="237bfd0053"><path d="M 0.5 0.0078125 L 112.449219 0.0078125 L 112.449219 111.996094 L 0.5 111.996094 Z M 0.5 0.0078125 " clip-rule="nonzero"/></clipPath><clipPath id="cf3036ed10"><rect x="0" width="113" y="0" height="112"/></clipPath><clipPath id="80845eca37"><path d="M 86.667969 63.511719 L 123.753906 63.511719 L 123.753906 91.363281 L 86.667969 91.363281 Z M 86.667969 63.511719 " clip-rule="nonzero"/></clipPath><clipPath id="cf52e0c5b4"><path d="M 123.71875 91.363281 L 116.78125 91.363281 L 116.746094 71.699219 L 96.660156 71.699219 C 96.101562 71.699219 95.625 71.800781 95.121094 71.925781 C 93.90625 72.363281 93.628906 73.441406 93.625 74.734375 L 93.609375 80.300781 C 93.605469 81.457031 93.894531 82.632812 94.976562 83.007812 C 95.449219 83.175781 95.953125 83.261719 96.5 83.261719 L 109.816406 83.253906 L 109.785156 91.363281 L 95.378906 91.351562 L 94.210938 91.246094 C 91.5 91.003906 88.691406 90.566406 87.59375 87.835938 C 87.265625 87.023438 87 86.191406 86.945312 85.304688 L 86.667969 80.695312 L 86.695312 71.078125 C 86.699219 69.785156 87 68.585938 87.515625 67.4375 C 88.695312 64.820312 91.257812 63.59375 94.113281 63.59375 L 123.699219 63.597656 Z M 123.71875 91.363281 " clip-rule="nonzero"/></clipPath><clipPath id="7c9df53c14"><path d="M 0.667969 0.59375 L 37.753906 0.59375 L 37.753906 28.363281 L 0.667969 28.363281 Z M 0.667969 0.59375 " clip-rule="nonzero"/></clipPath><clipPath id="63c3496719"><path d="M 37.71875 28.363281 L 30.78125 28.363281 L 30.746094 8.699219 L 10.660156 8.699219 C 10.101562 8.699219 9.625 8.800781 9.121094 8.925781 C 7.90625 9.363281 7.628906 10.441406 7.625 11.734375 L 7.609375 17.300781 C 7.605469 18.457031 7.894531 19.632812 8.976562 20.007812 C 9.449219 20.175781 9.953125 20.261719 10.5 20.261719 L 23.816406 20.253906 L 23.785156 28.363281 L 9.378906 28.351562 L 8.210938 28.246094 C 5.5 28.003906 2.691406 27.566406 1.59375 24.835938 C 1.265625 24.023438 1 23.191406 0.945312 22.304688 L 0.667969 17.695312 L 0.695312 8.078125 C 0.699219 6.785156 1 5.585938 1.515625 4.4375 C 2.695312 1.820312 5.257812 0.59375 8.113281 0.59375 L 37.699219 0.597656 Z M 37.71875 28.363281 " clip-rule="nonzero"/></clipPath><clipPath id="152e358c86"><rect x="0" width="38" y="0" height="29"/></clipPath><clipPath id="4240162653"><path d="M 176.703125 63.59375 L 213.871094 63.59375 L 213.871094 91.449219 L 176.703125 91.449219 Z M 176.703125 63.59375 " clip-rule="nonzero"/></clipPath><clipPath id="57f84d095e"><path d="M 213.835938 91.367188 L 206.90625 91.367188 L 206.882812 71.699219 L 186.777344 71.695312 C 186.214844 71.695312 185.742188 71.800781 185.242188 71.929688 C 184.023438 72.375 183.757812 73.433594 183.75 74.730469 L 183.730469 80.140625 C 183.726562 81.382812 183.964844 82.648438 185.148438 83.027344 C 185.636719 83.1875 186.140625 83.261719 186.691406 83.261719 L 199.945312 83.253906 L 199.910156 91.367188 L 185.570312 91.351562 L 184.324219 91.246094 C 181.457031 91.007812 178.617188 90.484375 177.597656 87.542969 C 177.273438 86.609375 177.039062 85.660156 176.992188 84.660156 L 176.785156 80.058594 L 176.820312 71.074219 C 176.828125 69.769531 177.128906 68.542969 177.660156 67.390625 C 178.835938 64.847656 181.375 63.59375 184.148438 63.59375 L 213.824219 63.597656 Z M 213.835938 91.367188 " clip-rule="nonzero"/></clipPath><clipPath id="1faa5b631c"><path d="M 0.722656 0.59375 L 37.871094 0.59375 L 37.871094 28.449219 L 0.722656 28.449219 Z M 0.722656 0.59375 " clip-rule="nonzero"/></clipPath><clipPath id="8ca57f84e3"><path d="M 37.835938 28.367188 L 30.90625 28.367188 L 30.882812 8.699219 L 10.777344 8.695312 C 10.214844 8.695312 9.742188 8.800781 9.242188 8.929688 C 8.023438 9.375 7.757812 10.433594 7.75 11.730469 L 7.730469 17.140625 C 7.726562 18.382812 7.964844 19.648438 9.148438 20.027344 C 9.636719 20.1875 10.140625 20.261719 10.691406 20.261719 L 23.945312 20.253906 L 23.910156 28.367188 L 9.570312 28.351562 L 8.324219 28.246094 C 5.457031 28.007812 2.617188 27.484375 1.597656 24.542969 C 1.273438 23.609375 1.039062 22.660156 0.992188 21.660156 L 0.785156 17.058594 L 0.820312 8.074219 C 0.828125 6.769531 1.128906 5.542969 1.660156 4.390625 C 2.835938 1.847656 5.375 0.59375 8.148438 0.59375 L 37.824219 0.597656 Z M 37.835938 28.367188 " clip-rule="nonzero"/></clipPath><clipPath id="7f80513871"><rect x="0" width="38" y="0" height="29"/></clipPath><clipPath id="226d7f5deb"><path d="M 1.011719 63.511719 L 38.1875 63.511719 L 38.1875 91.371094 L 1.011719 91.371094 Z M 1.011719 63.511719 " clip-rule="nonzero"/></clipPath><clipPath id="21b82a9a8b"><path d="M 38.144531 91.371094 L 31.214844 91.371094 L 31.195312 71.699219 L 11.082031 71.699219 C 10.542969 71.699219 10.085938 71.796875 9.605469 71.914062 C 8.878906 72.15625 8.277344 72.6875 8.195312 73.464844 L 8.054688 74.8125 L 8.042969 80.546875 C 8.042969 80.957031 8.144531 81.382812 8.25 81.765625 C 8.582031 82.945312 9.75 83.269531 10.996094 83.265625 L 24.257812 83.257812 L 24.285156 91.371094 L 9.875 91.355469 L 8.628906 91.253906 C 5.765625 91.015625 2.914062 90.488281 1.902344 87.539062 C 1.582031 86.601562 1.347656 85.652344 1.296875 84.652344 L 1.09375 80.378906 L 1.128906 71.074219 C 1.136719 69.632812 1.496094 68.265625 2.15625 67.027344 C 3.382812 64.714844 5.855469 63.59375 8.453125 63.59375 L 38.136719 63.597656 Z M 38.144531 91.371094 " clip-rule="nonzero"/></clipPath><clipPath id="bfe14309ae"><path d="M 0.0117188 0.59375 L 37.1875 0.59375 L 37.1875 28.371094 L 0.0117188 28.371094 Z M 0.0117188 0.59375 " clip-rule="nonzero"/></clipPath><clipPath id="1d2b97b9c8"><path d="M 37.144531 28.371094 L 30.214844 28.371094 L 30.195312 8.699219 L 10.082031 8.699219 C 9.542969 8.699219 9.085938 8.796875 8.605469 8.914062 C 7.878906 9.15625 7.277344 9.6875 7.195312 10.464844 L 7.054688 11.8125 L 7.042969 17.546875 C 7.042969 17.957031 7.144531 18.382812 7.25 18.765625 C 7.582031 19.945312 8.75 20.269531 9.996094 20.265625 L 23.257812 20.257812 L 23.285156 28.371094 L 8.875 28.355469 L 7.628906 28.253906 C 4.765625 28.015625 1.914062 27.488281 0.902344 24.539062 C 0.582031 23.601562 0.347656 22.652344 0.296875 21.652344 L 0.09375 17.378906 L 0.128906 8.074219 C 0.136719 6.632812 0.496094 5.265625 1.15625 4.027344 C 2.382812 1.714844 4.855469 0.59375 7.453125 0.59375 L 37.136719 0.597656 Z M 37.144531 28.371094 " clip-rule="nonzero"/></clipPath><clipPath id="f5d2067b96"><rect x="0" width="38" y="0" height="29"/></clipPath><clipPath id="46f007ded2"><path d="M 131.585938 63.511719 L 168.753906 63.511719 L 168.753906 91.367188 L 131.585938 91.367188 Z M 131.585938 63.511719 " clip-rule="nonzero"/></clipPath><clipPath id="df9c63024f"><path d="M 168.699219 91.367188 L 161.769531 91.367188 L 161.769531 71.699219 L 141.558594 71.699219 C 140.992188 71.699219 140.488281 71.816406 140.003906 71.996094 C 138.898438 72.40625 138.636719 73.542969 138.640625 74.746094 L 138.675781 91.367188 L 131.667969 91.367188 L 131.703125 71.183594 C 131.703125 69.867188 132 68.632812 132.519531 67.46875 C 133.683594 64.851562 136.246094 63.59375 139.09375 63.59375 L 168.71875 63.601562 Z M 168.699219 91.367188 " clip-rule="nonzero"/></clipPath><clipPath id="fb979cf66f"><path d="M 0.585938 0.59375 L 37.753906 0.59375 L 37.753906 28.367188 L 0.585938 28.367188 Z M 0.585938 0.59375 " clip-rule="nonzero"/></clipPath><clipPath id="e132713e70"><path d="M 37.699219 28.367188 L 30.769531 28.367188 L 30.769531 8.699219 L 10.558594 8.699219 C 9.992188 8.699219 9.488281 8.816406 9.003906 8.996094 C 7.898438 9.40625 7.636719 10.542969 7.640625 11.746094 L 7.675781 28.367188 L 0.667969 28.367188 L 0.703125 8.183594 C 0.703125 6.867188 1 5.632812 1.519531 4.46875 C 2.683594 1.851562 5.246094 0.59375 8.09375 0.59375 L 37.71875 0.601562 Z M 37.699219 28.367188 " clip-rule="nonzero"/></clipPath><clipPath id="28796734db"><rect x="0" width="38" y="0" height="29"/></clipPath><clipPath id="b72baa1e87"><path d="M 43.773438 63.511719 L 78.921875 63.511719 L 78.921875 91.484375 L 43.773438 91.484375 Z M 43.773438 63.511719 " clip-rule="nonzero"/></clipPath><clipPath id="bf77137bec"><path d="M 62.824219 91.402344 L 59.863281 91.402344 L 43.855469 77.492188 L 43.855469 63.59375 L 50.816406 63.597656 L 50.816406 74.019531 L 61.046875 83.105469 C 61.140625 83.191406 61.265625 83.273438 61.34375 83.28125 C 61.421875 83.292969 61.550781 83.199219 61.644531 83.117188 L 71.890625 74.015625 L 71.890625 63.59375 L 78.84375 63.597656 L 78.84375 77.496094 Z M 62.824219 91.402344 " clip-rule="nonzero"/></clipPath><clipPath id="867f974c25"><path d="M 0.773438 0.59375 L 35.921875 0.59375 L 35.921875 28.484375 L 0.773438 28.484375 Z M 0.773438 0.59375 " clip-rule="nonzero"/></clipPath><clipPath id="f5e9a985c5"><path d="M 19.824219 28.402344 L 16.863281 28.402344 L 0.855469 14.492188 L 0.855469 0.59375 L 7.816406 0.597656 L 7.816406 11.019531 L 18.046875 20.105469 C 18.140625 20.191406 18.265625 20.273438 18.34375 20.28125 C 18.421875 20.292969 18.550781 20.199219 18.644531 20.117188 L 28.890625 11.015625 L 28.890625 0.59375 L 35.84375 0.597656 L 35.84375 14.496094 Z M 19.824219 28.402344 " clip-rule="nonzero"/></clipPath><clipPath id="b2f664b0c4"><rect x="0" width="36" y="0" height="29"/></clipPath><clipPath id="ad60eedfbd"><path d="M 193.070312 2.554688 L 232.8125 2.554688 L 232.8125 58.625 L 193.070312 58.625 Z M 193.070312 2.554688 " clip-rule="nonzero"/></clipPath><clipPath id="0d7bf23836"><path d="M 206.042969 29.398438 L 208.589844 31.824219 C 210.238281 33.394531 211.996094 34.636719 214.066406 35.59375 L 219.886719 38.285156 C 222.140625 39.328125 224.28125 40.433594 226.394531 41.726562 C 228.4375 42.976562 230.671875 44.617188 231.941406 46.613281 C 232.640625 47.714844 232.898438 48.929688 232.691406 50.222656 C 232.132812 53.734375 229.5 56.445312 226.199219 57.660156 C 224.71875 58.207031 223.234375 58.496094 221.625 58.53125 C 217.265625 58.636719 212.96875 57.902344 208.894531 56.367188 C 205.898438 55.238281 202.597656 53.367188 200.574219 50.902344 C 199.484375 49.574219 198.542969 48.21875 197.628906 46.753906 C 195.679688 43.644531 194.386719 40.253906 193.746094 36.621094 C 193.171875 33.355469 192.945312 30.074219 193.136719 26.742188 C 193.394531 22.308594 193.964844 17.984375 194.707031 13.621094 L 195.949219 8.007812 C 196.203125 6.867188 196.617188 5.824219 197.097656 4.773438 C 197.394531 4.113281 197.769531 3.5 198.277344 3.019531 C 198.761719 2.566406 199.417969 2.511719 199.949219 2.890625 C 200.394531 3.207031 200.757812 3.652344 201.027344 4.121094 L 200.84375 8.359375 C 200.738281 10.722656 200.828125 13 201.03125 15.363281 L 201.554688 21.25 L 201.648438 26.1875 C 199.289062 27.367188 198.5 29.675781 198.777344 32.242188 C 198.976562 33.683594 199.40625 35.023438 200.167969 36.273438 C 201.65625 38.707031 203.480469 40.863281 205.613281 42.75 C 206.402344 43.414062 207.207031 43.933594 208.167969 44.285156 L 208.496094 44.242188 C 208.707031 44.214844 208.382812 43.386719 207.890625 42.875 L 205.902344 40.796875 L 202.710938 37.625 C 198.964844 33.902344 199.703125 27.199219 202.042969 27.527344 C 203.546875 27.738281 204.871094 28.386719 206.042969 29.398438 Z M 206.042969 29.398438 " clip-rule="nonzero"/></clipPath><clipPath id="4a5388b943"><path d="M 0.0703125 0.554688 L 39.8125 0.554688 L 39.8125 56.574219 L 0.0703125 56.574219 Z M 0.0703125 0.554688 " clip-rule="nonzero"/></clipPath><clipPath id="bdda1505a5"><path d="M 13.042969 27.398438 L 15.589844 29.824219 C 17.238281 31.394531 18.996094 32.636719 21.066406 33.59375 L 26.886719 36.285156 C 29.140625 37.328125 31.28125 38.433594 33.394531 39.726562 C 35.4375 40.976562 37.671875 42.617188 38.941406 44.613281 C 39.640625 45.714844 39.898438 46.929688 39.691406 48.222656 C 39.132812 51.734375 36.5 54.445312 33.199219 55.660156 C 31.71875 56.207031 30.234375 56.496094 28.625 56.53125 C 24.265625 56.636719 19.96875 55.902344 15.894531 54.367188 C 12.898438 53.238281 9.597656 51.367188 7.574219 48.902344 C 6.484375 47.574219 5.542969 46.21875 4.628906 44.753906 C 2.679688 41.644531 1.386719 38.253906 0.746094 34.621094 C 0.171875 31.355469 -0.0546875 28.074219 0.136719 24.742188 C 0.394531 20.308594 0.964844 15.984375 1.707031 11.621094 L 2.949219 6.007812 C 3.203125 4.867188 3.617188 3.824219 4.097656 2.773438 C 4.394531 2.113281 4.769531 1.5 5.277344 1.019531 C 5.761719 0.566406 6.417969 0.511719 6.949219 0.890625 C 7.394531 1.207031 7.757812 1.652344 8.027344 2.121094 L 7.84375 6.359375 C 7.738281 8.722656 7.828125 11 8.03125 13.363281 L 8.554688 19.25 L 8.648438 24.1875 C 6.289062 25.367188 5.5 27.675781 5.777344 30.242188 C 5.976562 31.683594 6.40625 33.023438 7.167969 34.273438 C 8.65625 36.707031 10.480469 38.863281 12.613281 40.75 C 13.402344 41.414062 14.207031 41.933594 15.167969 42.285156 L 15.496094 42.242188 C 15.707031 42.214844 15.382812 41.386719 14.890625 40.875 L 12.902344 38.796875 L 9.710938 35.625 C 5.964844 31.902344 6.703125 25.199219 9.042969 25.527344 C 10.546875 25.738281 11.871094 26.386719 13.042969 27.398438 Z M 13.042969 27.398438 " clip-rule="nonzero"/></clipPath><clipPath id="6663547c7e"><rect x="0" width="40" y="0" height="57"/></clipPath><clipPath id="b09c5a014e"><path d="M 206.132812 12.285156 L 245.941406 12.285156 L 245.941406 68.164062 L 206.132812 68.164062 Z M 206.132812 12.285156 " clip-rule="nonzero"/></clipPath><clipPath id="a0235cda9f"><path d="M 239.023438 34.921875 C 237.546875 32.4375 235.765625 30.257812 233.648438 28.339844 C 232.789062 27.558594 231.898438 26.925781 230.804688 26.554688 C 230.703125 26.519531 230.492188 26.527344 230.453125 26.601562 C 230.214844 27.042969 231.320312 28.28125 231.914062 28.871094 L 235.351562 32.273438 C 236.03125 32.949219 236.679688 33.59375 237.234375 34.382812 C 238.582031 36.3125 239.078125 38.722656 238.757812 41.042969 C 238.675781 41.648438 238.457031 42.207031 238.15625 42.675781 C 237.78125 43.25 237.210938 43.375 236.582031 43.246094 C 235.125 42.949219 233.808594 42.292969 232.734375 41.257812 L 230.460938 39.074219 C 228.871094 37.546875 227.1875 36.289062 225.179688 35.355469 L 218.550781 32.28125 C 216.441406 31.300781 214.457031 30.25 212.484375 29.035156 C 210.417969 27.761719 208.144531 26.082031 206.921875 24.015625 C 206.289062 22.945312 206.089844 21.789062 206.289062 20.5625 C 206.839844 17.183594 209.320312 14.542969 212.472656 13.28125 C 214.0625 12.648438 215.679688 12.328125 217.421875 12.292969 C 221.613281 12.203125 225.734375 12.886719 229.671875 14.308594 C 232.824219 15.449219 236.261719 17.34375 238.390625 19.925781 C 239.472656 21.238281 240.398438 22.582031 241.304688 24.023438 C 244.648438 29.335938 245.859375 35.210938 245.839844 41.453125 C 245.957031 42.03125 245.886719 42.558594 245.863281 43.128906 L 245.785156 44.890625 L 244.285156 57.003906 L 243.144531 62.320312 C 242.867188 63.605469 242.417969 64.800781 241.882812 65.996094 C 241.585938 66.65625 241.214844 67.269531 240.710938 67.757812 C 240.214844 68.242188 239.519531 68.304688 238.972656 67.886719 C 238.554688 67.566406 238.207031 67.148438 237.933594 66.691406 L 238.148438 61.355469 C 238.226562 59.332031 238.09375 57.398438 237.929688 55.382812 L 237.402344 49.417969 L 237.3125 44.628906 C 240.960938 42.773438 240.789062 38.332031 239.023438 34.921875 Z M 239.023438 34.921875 " clip-rule="nonzero"/></clipPath><clipPath id="a3b2f9f613"><path d="M 0.132812 0.285156 L 39.941406 0.285156 L 39.941406 56.164062 L 0.132812 56.164062 Z M 0.132812 0.285156 " clip-rule="nonzero"/></clipPath><clipPath id="7b52a79872"><path d="M 33.023438 22.921875 C 31.546875 20.4375 29.765625 18.257812 27.648438 16.339844 C 26.789062 15.558594 25.898438 14.925781 24.804688 14.554688 C 24.703125 14.519531 24.492188 14.527344 24.453125 14.601562 C 24.214844 15.042969 25.320312 16.28125 25.914062 16.871094 L 29.351562 20.273438 C 30.03125 20.949219 30.679688 21.59375 31.234375 22.382812 C 32.582031 24.3125 33.078125 26.722656 32.757812 29.042969 C 32.675781 29.648438 32.457031 30.207031 32.15625 30.675781 C 31.78125 31.25 31.210938 31.375 30.582031 31.246094 C 29.125 30.949219 27.808594 30.292969 26.734375 29.257812 L 24.460938 27.074219 C 22.871094 25.546875 21.1875 24.289062 19.179688 23.355469 L 12.550781 20.28125 C 10.441406 19.300781 8.457031 18.25 6.484375 17.035156 C 4.417969 15.761719 2.144531 14.082031 0.921875 12.015625 C 0.289062 10.945312 0.0898438 9.789062 0.289062 8.5625 C 0.839844 5.183594 3.320312 2.542969 6.472656 1.28125 C 8.0625 0.648438 9.679688 0.328125 11.421875 0.292969 C 15.613281 0.203125 19.734375 0.886719 23.671875 2.308594 C 26.824219 3.449219 30.261719 5.34375 32.390625 7.925781 C 33.472656 9.238281 34.398438 10.582031 35.304688 12.023438 C 38.648438 17.335938 39.859375 23.210938 39.839844 29.453125 C 39.957031 30.03125 39.886719 30.558594 39.863281 31.128906 L 39.785156 32.890625 L 38.285156 45.003906 L 37.144531 50.320312 C 36.867188 51.605469 36.417969 52.800781 35.882812 53.996094 C 35.585938 54.65625 35.214844 55.269531 34.710938 55.757812 C 34.214844 56.242188 33.519531 56.304688 32.972656 55.886719 C 32.554688 55.566406 32.207031 55.148438 31.933594 54.691406 L 32.148438 49.355469 C 32.226562 47.332031 32.09375 45.398438 31.929688 43.382812 L 31.402344 37.417969 L 31.3125 32.628906 C 34.960938 30.773438 34.789062 26.332031 33.023438 22.921875 Z M 33.023438 22.921875 " clip-rule="nonzero"/></clipPath><clipPath id="1eb9a8c525"><rect x="0" width="40" y="0" height="57"/></clipPath><clipPath id="4d4ba5c8bc"><path d="M 201.511719 0.597656 L 207.171875 0.597656 L 207.171875 19.089844 L 201.511719 19.089844 Z M 201.511719 0.597656 " clip-rule="nonzero"/></clipPath><clipPath id="ea48ed2dbb"><path d="M 202.894531 16.878906 C 202.605469 17.648438 202.433594 18.347656 201.980469 19.082031 L 201.515625 13.089844 L 201.511719 4.574219 C 202.261719 3.035156 203.582031 1.046875 205.199219 0.597656 C 207.046875 0.945312 207.355469 2.625 207.039062 4.390625 C 206.832031 5.5625 206.53125 6.660156 206.113281 7.773438 L 204.460938 12.183594 Z M 202.894531 16.878906 " clip-rule="nonzero"/></clipPath><clipPath id="30c140c6a9"><path d="M 0.511719 0.597656 L 6.171875 0.597656 L 6.171875 19.089844 L 0.511719 19.089844 Z M 0.511719 0.597656 " clip-rule="nonzero"/></clipPath><clipPath id="c4567c5266"><path d="M 1.894531 16.878906 C 1.605469 17.648438 1.433594 18.347656 0.980469 19.082031 L 0.515625 13.089844 L 0.511719 4.574219 C 1.261719 3.035156 2.582031 1.046875 4.199219 0.597656 C 6.046875 0.945312 6.355469 2.625 6.039062 4.390625 C 5.832031 5.5625 5.53125 6.660156 5.113281 7.773438 L 3.460938 12.183594 Z M 1.894531 16.878906 " clip-rule="nonzero"/></clipPath><clipPath id="75156b4c9d"><rect x="0" width="7" y="0" height="20"/></clipPath><clipPath id="c9b1183dff"><path d="M 231.8125 51.808594 L 237.441406 51.808594 L 237.441406 70.222656 L 231.8125 70.222656 Z M 231.8125 51.808594 " clip-rule="nonzero"/></clipPath><clipPath id="6b44b73486"><path d="M 231.894531 68.519531 C 231.574219 66.945312 232.265625 64.597656 232.839844 63.058594 L 234.46875 58.710938 L 235.984375 54.171875 L 236.953125 51.808594 L 237.414062 57.722656 L 237.417969 66.300781 C 236.8125 67.5 236.152344 68.558594 235.160156 69.433594 C 234.796875 69.757812 234.316406 70.191406 233.796875 70.210938 C 232.855469 70.242188 232.078125 69.429688 231.894531 68.519531 Z M 231.894531 68.519531 " clip-rule="nonzero"/></clipPath><clipPath id="e8c1a0effa"><path d="M 0.8125 0.808594 L 6.441406 0.808594 L 6.441406 19.222656 L 0.8125 19.222656 Z M 0.8125 0.808594 " clip-rule="nonzero"/></clipPath><clipPath id="7141ed011b"><path d="M 0.894531 17.519531 C 0.574219 15.945312 1.265625 13.597656 1.839844 12.058594 L 3.46875 7.710938 L 4.984375 3.171875 L 5.953125 0.808594 L 6.414062 6.722656 L 6.417969 15.300781 C 5.8125 16.5 5.152344 17.558594 4.160156 18.433594 C 3.796875 18.757812 3.316406 19.191406 2.796875 19.210938 C 1.855469 19.242188 1.078125 18.429688 0.894531 17.519531 Z M 0.894531 17.519531 " clip-rule="nonzero"/></clipPath><clipPath id="5d04b1c096"><rect x="0" width="7" y="0" height="20"/></clipPath><clipPath id="dcb3383b28"><rect x="0" width="247" y="0" height="92"/></clipPath></defs><g clip-path="url(#8fc92830c8)"><g transform="matrix(1, 0, 0, 1, 131, 0)"><g clip-path="url(#cf3036ed10)"><g clip-path="url(#237bfd0053)"><path fill="#ffffff" d="M 0.5 0.0078125 L 112.460938 0.0078125 L 112.460938 111.996094 L 0.5 111.996094 Z M 0.5 0.0078125 " fill-opacity="1" fill-rule="nonzero"/></g></g></g></g><g transform="matrix(1, 0, 0, 1, 64, 10)"><g clip-path="url(#dcb3383b28)"><g clip-path="url(#80845eca37)"><g clip-path="url(#cf52e0c5b4)"><g transform="matrix(1, 0, 0, 1, 86, 63)"><g clip-path="url(#152e358c86)"><g clip-path="url(#7c9df53c14)"><g clip-path="url(#63c3496719)"><path fill="#000000" d="M 0.667969 0.59375 L 37.753906 0.59375 L 37.753906 28.363281 L 0.667969 28.363281 Z M 0.667969 0.59375 " fill-opacity="1" fill-rule="nonzero"/></g></g></g></g></g></g><g clip-path="url(#4240162653)"><g clip-path="url(#57f84d095e)"><g transform="matrix(1, 0, 0, 1, 176, 63)"><g clip-path="url(#7f80513871)"><g clip-path="url(#1faa5b631c)"><g clip-path="url(#8ca57f84e3)"><path fill="#000000" d="M 0.785156 0.59375 L 37.871094 0.59375 L 37.871094 28.367188 L 0.785156 28.367188 Z M 0.785156 0.59375 " fill-opacity="1" fill-rule="nonzero"/></g></g></g></g></g></g><g clip-path="url(#226d7f5deb)"><g clip-path="url(#21b82a9a8b)"><g transform="matrix(1, 0, 0, 1, 1, 63)"><g clip-path="url(#f5d2067b96)"><g clip-path="url(#bfe14309ae)"><g clip-path="url(#1d2b97b9c8)"><path fill="#000000" d="M 0.09375 0.59375 L 37.105469 0.59375 L 37.105469 28.371094 L 0.09375 28.371094 Z M 0.09375 0.59375 " fill-opacity="1" fill-rule="nonzero"/></g></g></g></g></g></g><g clip-path="url(#46f007ded2)"><g clip-path="url(#df9c63024f)"><g transform="matrix(1, 0, 0, 1, 131, 63)"><g clip-path="url(#28796734db)"><g clip-path="url(#fb979cf66f)"><g clip-path="url(#e132713e70)"><path fill="#000000" d="M 0.667969 0.59375 L 37.753906 0.59375 L 37.753906 28.367188 L 0.667969 28.367188 Z M 0.667969 0.59375 " fill-opacity="1" fill-rule="nonzero"/></g></g></g></g></g></g><g clip-path="url(#b72baa1e87)"><g clip-path="url(#bf77137bec)"><g transform="matrix(1, 0, 0, 1, 43, 63)"><g clip-path="url(#b2f664b0c4)"><g clip-path="url(#867f974c25)"><g clip-path="url(#f5e9a985c5)"><path fill="#000000" d="M 0.855469 0.59375 L 35.839844 0.59375 L 35.839844 28.402344 L 0.855469 28.402344 Z M 0.855469 0.59375 " fill-opacity="1" fill-rule="nonzero"/></g></g></g></g></g></g><g clip-path="url(#ad60eedfbd)"><g clip-path="url(#0d7bf23836)"><g transform="matrix(1, 0, 0, 1, 193, 2)"><g clip-path="url(#6663547c7e)"><g clip-path="url(#4a5388b943)"><g clip-path="url(#bdda1505a5)"><path fill="#ba7c00" d="M 0.0703125 0.640625 L 39.730469 0.640625 L 39.730469 56.542969 L 0.0703125 56.542969 Z M 0.0703125 0.640625 " fill-opacity="1" fill-rule="nonzero"/></g></g></g></g></g></g><g clip-path="url(#b09c5a014e)"><g clip-path="url(#a0235cda9f)"><g transform="matrix(1, 0, 0, 1, 206, 12)"><g clip-path="url(#1eb9a8c525)"><g clip-path="url(#a3b2f9f613)"><g clip-path="url(#7b52a79872)"><path fill="#ba7c00" d="M 0.214844 0.285156 L 39.941406 0.285156 L 39.941406 56.164062 L 0.214844 56.164062 Z M 0.214844 0.285156 " fill-opacity="1" fill-rule="nonzero"/></g></g></g></g></g></g><g clip-path="url(#4d4ba5c8bc)"><g clip-path="url(#ea48ed2dbb)"><g transform="matrix(1, 0, 0, 1, 201, 0)"><g clip-path="url(#75156b4c9d)"><g clip-path="url(#30c140c6a9)"><g clip-path="url(#c4567c5266)"><path fill="#ba7c00" d="M 0.511719 0.597656 L 6.148438 0.597656 L 6.148438 19.089844 L 0.511719 19.089844 Z M 0.511719 0.597656 " fill-opacity="1" fill-rule="nonzero"/></g></g></g></g></g></g><g clip-path="url(#c9b1183dff)"><g clip-path="url(#6b44b73486)"><g transform="matrix(1, 0, 0, 1, 231, 51)"><g clip-path="url(#5d04b1c096)"><g clip-path="url(#e8c1a0effa)"><g clip-path="url(#7141ed011b)"><path fill="#ba7c00" d="M 0.8125 0.808594 L 6.417969 0.808594 L 6.417969 19.222656 L 0.8125 19.222656 Z M 0.8125 0.808594 " fill-opacity="1" fill-rule="nonzero"/></g></g></g></g></g></g></g></g></svg>